<svg id="visual" viewBox="0 0 960 540" width="960" height="540" xmlns="http://www.w3.org/2000/svg" xmlns:xlink="http://www.w3.org/1999/xlink" version="1.1"><path d="M0 372L17.8 366C35.7 360 71.3 348 106.8 342.3C142.3 336.7 177.7 337.3 213.2 335.7C248.7 334 284.3 330 320 332.7C355.7 335.3 391.3 344.7 426.8 351C462.3 357.3 497.7 360.7 533.2 359.8C568.7 359 604.3 354 640 353.2C675.7 352.3 711.3 355.7 746.8 357.7C782.3 359.7 817.7 360.3 853.2 361C888.7 361.7 924.3 362.3 942.2 362.7L960 363L960 541L942.2 541C924.3 541 888.7 541 853.2 541C817.7 541 782.3 541 746.8 541C711.3 541 675.7 541 640 541C604.3 541 568.7 541 533.2 541C497.7 541 462.3 541 426.8 541C391.3 541 355.7 541 320 541C284.3 541 248.7 541 213.2 541C177.7 541 142.3 541 106.8 541C71.3 541 35.7 541 17.8 541L0 541Z" fill="#fcb045"></path><path d="M0 399L17.8 399.8C35.7 400.7 71.3 402.3 106.8 400.7C142.3 399 177.7 394 213.2 387.7C248.7 381.3 284.3 373.7 320 373.8C355.7 374 391.3 382 426.8 386.3C462.3 390.7 497.7 391.3 533.2 393C568.7 394.7 604.3 397.3 640 396.7C675.7 396 711.3 392 746.8 389.5C782.3 387 817.7 386 853.2 387.5C888.7 389 924.3 393 942.2 395L960 397L960 541L942.2 541C924.3 541 888.7 541 853.2 541C817.7 541 782.3 541 746.8 541C711.3 541 675.7 541 640 541C604.3 541 568.7 541 533.2 541C497.7 541 462.3 541 426.8 541C391.3 541 355.7 541 320 541C284.3 541 248.7 541 213.2 541C177.7 541 142.3 541 106.8 541C71.3 541 35.7 541 17.8 541L0 541Z" fill="#ff7d53"></path><path d="M0 410L17.8 414.8C35.7 419.7 71.3 429.3 106.8 430.8C142.3 432.3 177.7 425.7 213.2 421C248.7 416.3 284.3 413.7 320 412.8C355.7 412 391.3 413 426.8 418.5C462.3 424 497.7 434 533.2 439.7C568.7 445.3 604.3 446.7 640 446.8C675.7 447 711.3 446 746.8 441.5C782.3 437 817.7 429 853.2 425.7C888.7 422.3 924.3 423.7 942.2 424.3L960 425L960 541L942.2 541C924.3 541 888.7 541 853.2 541C817.7 541 782.3 541 746.8 541C711.3 541 675.7 541 640 541C604.3 541 568.7 541 533.2 541C497.7 541 462.3 541 426.8 541C391.3 541 355.7 541 320 541C284.3 541 248.7 541 213.2 541C177.7 541 142.3 541 106.8 541C71.3 541 35.7 541 17.8 541L0 541Z" fill="#f94c72"></path><path d="M0 441L17.8 441.5C35.7 442 71.3 443 106.8 447C142.3 451 177.7 458 213.2 463.2C248.7 468.3 284.3 471.7 320 467.5C355.7 463.3 391.3 451.7 426.8 449.3C462.3 447 497.7 454 533.2 459.3C568.7 464.7 604.3 468.3 640 468.7C675.7 469 711.3 466 746.8 462.2C782.3 458.3 817.7 453.7 853.2 456.8C888.7 460 924.3 471 942.2 476.5L960 482L960 541L942.2 541C924.3 541 888.7 541 853.2 541C817.7 541 782.3 541 746.8 541C711.3 541 675.7 541 640 541C604.3 541 568.7 541 533.2 541C497.7 541 462.3 541 426.8 541C391.3 541 355.7 541 320 541C284.3 541 248.7 541 213.2 541C177.7 541 142.3 541 106.8 541C71.3 541 35.7 541 17.8 541L0 541Z" fill="#d03096"></path><path d="M0 505L17.8 504C35.7 503 71.3 501 106.8 500C142.3 499 177.7 499 213.2 500.8C248.7 502.7 284.3 506.3 320 508.3C355.7 510.3 391.3 510.7 426.8 509.5C462.3 508.3 497.7 505.7 533.2 504.8C568.7 504 604.3 505 640 506.2C675.7 507.3 711.3 508.7 746.8 506.7C782.3 504.7 817.7 499.3 853.2 494.5C888.7 489.7 924.3 485.3 942.2 483.2L960 481L960 541L942.2 541C924.3 541 888.7 541 853.2 541C817.7 541 782.3 541 746.8 541C711.3 541 675.7 541 640 541C604.3 541 568.7 541 533.2 541C497.7 541 462.3 541 426.8 541C391.3 541 355.7 541 320 541C284.3 541 248.7 541 213.2 541C177.7 541 142.3 541 106.8 541C71.3 541 35.7 541 17.8 541L0 541Z" fill="#833ab4"></path></svg>