<svg id="visual" viewBox="0 0 960 540" width="960" height="540" xmlns="http://www.w3.org/2000/svg" xmlns:xlink="http://www.w3.org/1999/xlink" version="1.1"><path d="M0 407L13.3 401.7C26.7 396.3 53.3 385.7 80 378.3C106.7 371 133.3 367 160 365.5C186.7 364 213.3 365 240 372.3C266.7 379.7 293.3 393.3 320 403.7C346.7 414 373.3 421 400 418.8C426.7 416.7 453.3 405.3 480 395.7C506.7 386 533.3 378 560 382.7C586.7 387.3 613.3 404.7 640 404.3C666.7 404 693.3 386 720 379C746.7 372 773.3 376 800 376.3C826.7 376.7 853.3 373.3 880 381.3C906.7 389.3 933.3 408.7 946.7 418.3L960 428L960 0L946.7 0C933.3 0 906.7 0 880 0C853.3 0 826.7 0 800 0C773.3 0 746.7 0 720 0C693.3 0 666.7 0 640 0C613.3 0 586.7 0 560 0C533.3 0 506.7 0 480 0C453.3 0 426.7 0 400 0C373.3 0 346.7 0 320 0C293.3 0 266.7 0 240 0C213.3 0 186.7 0 160 0C133.3 0 106.7 0 80 0C53.3 0 26.7 0 13.3 0L0 0Z" fill="#67009a"></path><path d="M0 368L13.3 360.5C26.7 353 53.3 338 80 335C106.7 332 133.3 341 160 342.2C186.7 343.3 213.3 336.7 240 335.2C266.7 333.7 293.3 337.3 320 335.2C346.7 333 373.3 325 400 329.2C426.7 333.3 453.3 349.7 480 349C506.7 348.3 533.3 330.7 560 331.3C586.7 332 613.3 351 640 358.8C666.7 366.7 693.3 363.3 720 361.5C746.7 359.7 773.3 359.3 800 359.2C826.7 359 853.3 359 880 355C906.7 351 933.3 343 946.7 339L960 335L960 0L946.7 0C933.3 0 906.7 0 880 0C853.3 0 826.7 0 800 0C773.3 0 746.7 0 720 0C693.3 0 666.7 0 640 0C613.3 0 586.7 0 560 0C533.3 0 506.7 0 480 0C453.3 0 426.7 0 400 0C373.3 0 346.7 0 320 0C293.3 0 266.7 0 240 0C213.3 0 186.7 0 160 0C133.3 0 106.7 0 80 0C53.3 0 26.7 0 13.3 0L0 0Z" fill="#56078e"></path><path d="M0 299L13.3 299.2C26.7 299.3 53.3 299.7 80 298C106.7 296.3 133.3 292.7 160 295.2C186.7 297.7 213.3 306.3 240 305.5C266.7 304.7 293.3 294.3 320 295.2C346.7 296 373.3 308 400 311.2C426.7 314.3 453.3 308.7 480 300.8C506.7 293 533.3 283 560 286.7C586.7 290.3 613.3 307.7 640 309.5C666.7 311.3 693.3 297.7 720 293.2C746.7 288.7 773.3 293.3 800 291.7C826.7 290 853.3 282 880 281.7C906.7 281.3 933.3 288.7 946.7 292.3L960 296L960 0L946.7 0C933.3 0 906.7 0 880 0C853.3 0 826.7 0 800 0C773.3 0 746.7 0 720 0C693.3 0 666.7 0 640 0C613.3 0 586.7 0 560 0C533.3 0 506.7 0 480 0C453.3 0 426.7 0 400 0C373.3 0 346.7 0 320 0C293.3 0 266.7 0 240 0C213.3 0 186.7 0 160 0C133.3 0 106.7 0 80 0C53.3 0 26.7 0 13.3 0L0 0Z" fill="#450b81"></path><path d="M0 220L13.3 222.8C26.7 225.7 53.3 231.3 80 236.5C106.7 241.7 133.3 246.3 160 252.5C186.7 258.7 213.3 266.3 240 270.5C266.7 274.7 293.3 275.3 320 274.7C346.7 274 373.3 272 400 262.3C426.7 252.7 453.3 235.3 480 230.3C506.7 225.3 533.3 232.7 560 235.8C586.7 239 613.3 238 640 238.7C666.7 239.3 693.3 241.7 720 247C746.7 252.3 773.3 260.7 800 261.3C826.7 262 853.3 255 880 255.3C906.7 255.7 933.3 263.3 946.7 267.2L960 271L960 0L946.7 0C933.3 0 906.7 0 880 0C853.3 0 826.7 0 800 0C773.3 0 746.7 0 720 0C693.3 0 666.7 0 640 0C613.3 0 586.7 0 560 0C533.3 0 506.7 0 480 0C453.3 0 426.7 0 400 0C373.3 0 346.7 0 320 0C293.3 0 266.7 0 240 0C213.3 0 186.7 0 160 0C133.3 0 106.7 0 80 0C53.3 0 26.7 0 13.3 0L0 0Z" fill="#360c75"></path><path d="M0 209L13.3 210.5C26.7 212 53.3 215 80 212.8C106.7 210.7 133.3 203.3 160 197.3C186.7 191.3 213.3 186.7 240 183C266.7 179.3 293.3 176.7 320 175.5C346.7 174.3 373.3 174.7 400 180.5C426.7 186.3 453.3 197.7 480 206.2C506.7 214.7 533.3 220.3 560 221.2C586.7 222 613.3 218 640 213.7C666.7 209.3 693.3 204.7 720 199.2C746.7 193.7 773.3 187.3 800 182.8C826.7 178.3 853.3 175.7 880 182.5C906.7 189.3 933.3 205.7 946.7 213.8L960 222L960 0L946.7 0C933.3 0 906.7 0 880 0C853.3 0 826.7 0 800 0C773.3 0 746.7 0 720 0C693.3 0 666.7 0 640 0C613.3 0 586.7 0 560 0C533.3 0 506.7 0 480 0C453.3 0 426.7 0 400 0C373.3 0 346.7 0 320 0C293.3 0 266.7 0 240 0C213.3 0 186.7 0 160 0C133.3 0 106.7 0 80 0C53.3 0 26.7 0 13.3 0L0 0Z" fill="#260c67"></path><path d="M0 166L13.3 160C26.7 154 53.3 142 80 135.5C106.7 129 133.3 128 160 133C186.7 138 213.3 149 240 155.5C266.7 162 293.3 164 320 162.8C346.7 161.7 373.3 157.3 400 156C426.7 154.7 453.3 156.3 480 152.5C506.7 148.7 533.3 139.3 560 139C586.7 138.7 613.3 147.3 640 148.7C666.7 150 693.3 144 720 141.3C746.7 138.7 773.3 139.3 800 142.8C826.7 146.3 853.3 152.7 880 156.7C906.7 160.7 933.3 162.3 946.7 163.2L960 164L960 0L946.7 0C933.3 0 906.7 0 880 0C853.3 0 826.7 0 800 0C773.3 0 746.7 0 720 0C693.3 0 666.7 0 640 0C613.3 0 586.7 0 560 0C533.3 0 506.7 0 480 0C453.3 0 426.7 0 400 0C373.3 0 346.7 0 320 0C293.3 0 266.7 0 240 0C213.3 0 186.7 0 160 0C133.3 0 106.7 0 80 0C53.3 0 26.7 0 13.3 0L0 0Z" fill="#170a5a"></path><path d="M0 123L13.3 116.3C26.7 109.7 53.3 96.3 80 93.7C106.7 91 133.3 99 160 103.7C186.7 108.3 213.3 109.7 240 112.7C266.7 115.7 293.3 120.3 320 115C346.7 109.7 373.3 94.3 400 92.7C426.7 91 453.3 103 480 105C506.7 107 533.3 99 560 96.8C586.7 94.7 613.3 98.3 640 99.5C666.7 100.7 693.3 99.3 720 100C746.7 100.7 773.3 103.3 800 101.3C826.7 99.3 853.3 92.7 880 95.5C906.7 98.3 933.3 110.7 946.7 116.8L960 123L960 0L946.7 0C933.3 0 906.7 0 880 0C853.3 0 826.7 0 800 0C773.3 0 746.7 0 720 0C693.3 0 666.7 0 640 0C613.3 0 586.7 0 560 0C533.3 0 506.7 0 480 0C453.3 0 426.7 0 400 0C373.3 0 346.7 0 320 0C293.3 0 266.7 0 240 0C213.3 0 186.7 0 160 0C133.3 0 106.7 0 80 0C53.3 0 26.7 0 13.3 0L0 0Z" fill="#07084d"></path><path d="M0 44L13.3 47.5C26.7 51 53.3 58 80 57.2C106.7 56.3 133.3 47.7 160 43.3C186.7 39 213.3 39 240 43.7C266.7 48.3 293.3 57.7 320 56.7C346.7 55.7 373.3 44.3 400 43.8C426.7 43.3 453.3 53.7 480 60C506.7 66.3 533.3 68.7 560 65.2C586.7 61.7 613.3 52.3 640 50C666.7 47.7 693.3 52.3 720 53.3C746.7 54.3 773.3 51.7 800 51.3C826.7 51 853.3 53 880 54C906.7 55 933.3 55 946.7 55L960 55L960 0L946.7 0C933.3 0 906.7 0 880 0C853.3 0 826.7 0 800 0C773.3 0 746.7 0 720 0C693.3 0 666.7 0 640 0C613.3 0 586.7 0 560 0C533.3 0 506.7 0 480 0C453.3 0 426.7 0 400 0C373.3 0 346.7 0 320 0C293.3 0 266.7 0 240 0C213.3 0 186.7 0 160 0C133.3 0 106.7 0 80 0C53.3 0 26.7 0 13.3 0L0 0Z" fill="#000040"></path></svg>