<svg id="visual" viewBox="0 0 960 540" width="960" height="540" xmlns="http://www.w3.org/2000/svg" xmlns:xlink="http://www.w3.org/1999/xlink" version="1.1"><path d="M0 50L14.5 49C29 48 58 46 87.2 43.2C116.3 40.3 145.7 36.7 174.8 34C204 31.3 233 29.7 262 31.5C291 33.3 320 38.7 349 42.3C378 46 407 48 436.2 46.2C465.3 44.3 494.7 38.7 523.8 35.8C553 33 582 33 611 36.7C640 40.3 669 47.7 698 48.7C727 49.7 756 44.3 785.2 46.2C814.3 48 843.7 57 872.8 57.8C902 58.7 931 51.3 945.5 47.7L960 44L960 0L945.5 0C931 0 902 0 872.8 0C843.7 0 814.3 0 785.2 0C756 0 727 0 698 0C669 0 640 0 611 0C582 0 553 0 523.8 0C494.7 0 465.3 0 436.2 0C407 0 378 0 349 0C320 0 291 0 262 0C233 0 204 0 174.8 0C145.7 0 116.3 0 87.2 0C58 0 29 0 14.5 0L0 0Z" fill="#fcb045"></path><path d="M0 82L14.5 82.8C29 83.7 58 85.3 87.2 85.3C116.3 85.3 145.7 83.7 174.8 82.8C204 82 233 82 262 80.2C291 78.3 320 74.7 349 78.3C378 82 407 93 436.2 91.2C465.3 89.3 494.7 74.7 523.8 71C553 67.3 582 74.7 611 78.3C640 82 669 82 698 82.8C727 83.7 756 85.3 785.2 89C814.3 92.7 843.7 98.3 872.8 99.3C902 100.3 931 96.7 945.5 94.8L960 93L960 42L945.5 45.7C931 49.3 902 56.7 872.8 55.8C843.7 55 814.3 46 785.2 44.2C756 42.3 727 47.7 698 46.7C669 45.7 640 38.3 611 34.7C582 31 553 31 523.8 33.8C494.7 36.7 465.3 42.3 436.2 44.2C407 46 378 44 349 40.3C320 36.7 291 31.3 262 29.5C233 27.7 204 29.3 174.8 32C145.7 34.7 116.3 38.3 87.2 41.2C58 44 29 46 14.5 47L0 48Z" fill="#ff8e4b"></path><path d="M0 120L14.5 126.3C29 132.7 58 145.3 87.2 151.7C116.3 158 145.7 158 174.8 156.2C204 154.3 233 150.7 262 143.3C291 136 320 125 349 129.5C378 134 407 154 436.2 159.5C465.3 165 494.7 156 523.8 150.5C553 145 582 143 611 144.8C640 146.7 669 152.3 698 153.3C727 154.3 756 150.7 785.2 152.3C814.3 154 843.7 161 872.8 158.3C902 155.7 931 143.3 945.5 137.2L960 131L960 91L945.5 92.8C931 94.7 902 98.3 872.8 97.3C843.7 96.3 814.3 90.7 785.2 87C756 83.3 727 81.7 698 80.8C669 80 640 80 611 76.3C582 72.7 553 65.3 523.8 69C494.7 72.7 465.3 87.3 436.2 89.2C407 91 378 80 349 76.3C320 72.7 291 76.3 262 78.2C233 80 204 80 174.8 80.8C145.7 81.7 116.3 83.3 87.2 83.3C58 83.3 29 81.7 14.5 80.8L0 80Z" fill="#ff6c5c"></path><path d="M0 179L14.5 183.5C29 188 58 197 87.2 204.2C116.3 211.3 145.7 216.7 174.8 212.2C204 207.7 233 193.3 262 184.3C291 175.3 320 171.7 349 176.2C378 180.7 407 193.3 436.2 196.2C465.3 199 494.7 192 523.8 190.2C553 188.3 582 191.7 611 198.8C640 206 669 217 698 218C727 219 756 210 785.2 206.3C814.3 202.7 843.7 204.3 872.8 201.7C902 199 931 192 945.5 188.5L960 185L960 129L945.5 135.2C931 141.3 902 153.7 872.8 156.3C843.7 159 814.3 152 785.2 150.3C756 148.7 727 152.3 698 151.3C669 150.3 640 144.7 611 142.8C582 141 553 143 523.8 148.5C494.7 154 465.3 163 436.2 157.5C407 152 378 132 349 127.5C320 123 291 134 262 141.3C233 148.7 204 152.3 174.8 154.2C145.7 156 116.3 156 87.2 149.7C58 143.3 29 130.7 14.5 124.3L0 118Z" fill="#f94c72"></path><path d="M0 363L14.5 363C29 363 58 363 87.2 364.8C116.3 366.7 145.7 370.3 174.8 363.2C204 356 233 338 262 329C291 320 320 320 349 317.2C378 314.3 407 308.7 436.2 312.2C465.3 315.7 494.7 328.3 523.8 332C553 335.7 582 330.3 611 327.7C640 325 669 325 698 325.8C727 326.7 756 328.3 785.2 330.2C814.3 332 843.7 334 872.8 339.5C902 345 931 354 945.5 358.5L960 363L960 183L945.5 186.5C931 190 902 197 872.8 199.7C843.7 202.3 814.3 200.7 785.2 204.3C756 208 727 217 698 216C669 215 640 204 611 196.8C582 189.7 553 186.3 523.8 188.2C494.7 190 465.3 197 436.2 194.2C407 191.3 378 178.7 349 174.2C320 169.7 291 173.3 262 182.3C233 191.3 204 205.7 174.8 210.2C145.7 214.7 116.3 209.3 87.2 202.2C58 195 29 186 14.5 181.5L0 177Z" fill="#e1358a"></path><path d="M0 460L14.5 460.8C29 461.7 58 463.3 87.2 462.5C116.3 461.7 145.7 458.3 174.8 447.7C204 437 233 419 262 415.3C291 411.7 320 422.3 349 421.3C378 420.3 407 407.7 436.2 401.3C465.3 395 494.7 395 523.8 397.7C553 400.3 582 405.7 611 401.2C640 396.7 669 382.3 698 381.5C727 380.7 756 393.3 785.2 401.5C814.3 409.7 843.7 413.3 872.8 416C902 418.7 931 420.3 945.5 421.2L960 422L960 361L945.5 356.5C931 352 902 343 872.8 337.5C843.7 332 814.3 330 785.2 328.2C756 326.3 727 324.7 698 323.8C669 323 640 323 611 325.7C582 328.3 553 333.7 523.8 330C494.7 326.3 465.3 313.7 436.2 310.2C407 306.7 378 312.3 349 315.2C320 318 291 318 262 327C233 336 204 354 174.8 361.2C145.7 368.3 116.3 364.7 87.2 362.8C58 361 29 361 14.5 361L0 361Z" fill="#bb30a2"></path><path d="M0 541L14.5 541C29 541 58 541 87.2 541C116.3 541 145.7 541 174.8 541C204 541 233 541 262 541C291 541 320 541 349 541C378 541 407 541 436.2 541C465.3 541 494.7 541 523.8 541C553 541 582 541 611 541C640 541 669 541 698 541C727 541 756 541 785.2 541C814.3 541 843.7 541 872.8 541C902 541 931 541 945.5 541L960 541L960 420L945.5 419.2C931 418.3 902 416.7 872.8 414C843.7 411.3 814.3 407.7 785.2 399.5C756 391.3 727 378.7 698 379.5C669 380.3 640 394.7 611 399.2C582 403.7 553 398.3 523.8 395.7C494.7 393 465.3 393 436.2 399.3C407 405.7 378 418.3 349 419.3C320 420.3 291 409.7 262 413.3C233 417 204 435 174.8 445.7C145.7 456.3 116.3 459.7 87.2 460.5C58 461.3 29 459.7 14.5 458.8L0 458Z" fill="#833ab4"></path></svg>