<svg id="visual" viewBox="0 0 960 540" width="960" height="540" xmlns="http://www.w3.org/2000/svg" xmlns:xlink="http://www.w3.org/1999/xlink" version="1.1"><path d="M0 71L12.3 72.8C24.7 74.7 49.3 78.3 74 78.3C98.7 78.3 123.3 74.7 148 70.2C172.7 65.7 197.3 60.3 221.8 57.7C246.3 55 270.7 55 295.2 54.2C319.7 53.3 344.3 51.7 369 60.7C393.7 69.7 418.3 89.3 443 92C467.7 94.7 492.3 80.3 517 77.7C541.7 75 566.3 84 591 85.8C615.7 87.7 640.3 82.3 664.8 83.2C689.3 84 713.7 91 738.2 91C762.7 91 787.3 84 812 75C836.7 66 861.3 55 886 56.7C910.7 58.3 935.3 72.7 947.7 79.8L960 87L960 0L947.7 0C935.3 0 910.7 0 886 0C861.3 0 836.7 0 812 0C787.3 0 762.7 0 738.2 0C713.7 0 689.3 0 664.8 0C640.3 0 615.7 0 591 0C566.3 0 541.7 0 517 0C492.3 0 467.7 0 443 0C418.3 0 393.7 0 369 0C344.3 0 319.7 0 295.2 0C270.7 0 246.3 0 221.8 0C197.3 0 172.7 0 148 0C123.3 0 98.7 0 74 0C49.3 0 24.7 0 12.3 0L0 0Z" fill="#67009a"></path><path d="M0 120L12.3 121.8C24.7 123.7 49.3 127.3 74 128.2C98.7 129 123.3 127 148 119.7C172.7 112.3 197.3 99.7 221.8 97C246.3 94.3 270.7 101.7 295.2 103.5C319.7 105.3 344.3 101.7 369 108.8C393.7 116 418.3 134 443 133.2C467.7 132.3 492.3 112.7 517 111.8C541.7 111 566.3 129 591 131.7C615.7 134.3 640.3 121.7 664.8 120.7C689.3 119.7 713.7 130.3 738.2 134C762.7 137.7 787.3 134.3 812 129C836.7 123.7 861.3 116.3 886 119C910.7 121.7 935.3 134.3 947.7 140.7L960 147L960 85L947.7 77.8C935.3 70.7 910.7 56.3 886 54.7C861.3 53 836.7 64 812 73C787.3 82 762.7 89 738.2 89C713.7 89 689.3 82 664.8 81.2C640.3 80.3 615.7 85.7 591 83.8C566.3 82 541.7 73 517 75.7C492.3 78.3 467.7 92.7 443 90C418.3 87.3 393.7 67.7 369 58.7C344.3 49.7 319.7 51.3 295.2 52.2C270.7 53 246.3 53 221.8 55.7C197.3 58.3 172.7 63.7 148 68.2C123.3 72.7 98.7 76.3 74 76.3C49.3 76.3 24.7 72.7 12.3 70.8L0 69Z" fill="#420b7f"></path><path d="M0 152L12.3 153.8C24.7 155.7 49.3 159.3 74 160.3C98.7 161.3 123.3 159.7 148 153.3C172.7 147 197.3 136 221.8 135C246.3 134 270.7 143 295.2 144C319.7 145 344.3 138 369 144.3C393.7 150.7 418.3 170.3 443 171.2C467.7 172 492.3 154 517 151.3C541.7 148.7 566.3 161.3 591 163.2C615.7 165 640.3 156 664.8 154.2C689.3 152.3 713.7 157.7 738.2 161.2C762.7 164.7 787.3 166.3 812 161C836.7 155.7 861.3 143.3 886 145.2C910.7 147 935.3 163 947.7 171L960 179L960 145L947.7 138.7C935.3 132.3 910.7 119.7 886 117C861.3 114.3 836.7 121.7 812 127C787.3 132.3 762.7 135.7 738.2 132C713.7 128.3 689.3 117.7 664.8 118.7C640.3 119.7 615.7 132.3 591 129.7C566.3 127 541.7 109 517 109.8C492.3 110.7 467.7 130.3 443 131.2C418.3 132 393.7 114 369 106.8C344.3 99.7 319.7 103.3 295.2 101.5C270.7 99.7 246.3 92.3 221.8 95C197.3 97.7 172.7 110.3 148 117.7C123.3 125 98.7 127 74 126.2C49.3 125.3 24.7 121.7 12.3 119.8L0 118Z" fill="#210b63"></path><path d="M0 185L12.3 188.5C24.7 192 49.3 199 74 202.5C98.7 206 123.3 206 148 197C172.7 188 197.3 170 221.8 165.5C246.3 161 270.7 170 295.2 173.7C319.7 177.3 344.3 175.7 369 184.7C393.7 193.7 418.3 213.3 443 215.2C467.7 217 492.3 201 517 199.2C541.7 197.3 566.3 209.7 591 212.3C615.7 215 640.3 208 664.8 208C689.3 208 713.7 215 738.2 215C762.7 215 787.3 208 812 199C836.7 190 861.3 179 886 182.5C910.7 186 935.3 204 947.7 213L960 222L960 177L947.7 169C935.3 161 910.7 145 886 143.2C861.3 141.3 836.7 153.7 812 159C787.3 164.3 762.7 162.7 738.2 159.2C713.7 155.7 689.3 150.3 664.8 152.2C640.3 154 615.7 163 591 161.2C566.3 159.3 541.7 146.7 517 149.3C492.3 152 467.7 170 443 169.2C418.3 168.3 393.7 148.7 369 142.3C344.3 136 319.7 143 295.2 142C270.7 141 246.3 132 221.8 133C197.3 134 172.7 145 148 151.3C123.3 157.7 98.7 159.3 74 158.3C49.3 157.3 24.7 153.7 12.3 151.8L0 150Z" fill="#020446"></path><path d="M0 206L12.3 210.5C24.7 215 49.3 224 74 228.5C98.7 233 123.3 233 148 223.2C172.7 213.3 197.3 193.7 221.8 187.3C246.3 181 270.7 188 295.2 193.3C319.7 198.7 344.3 202.3 369 215C393.7 227.7 418.3 249.3 443 250.3C467.7 251.3 492.3 231.7 517 228C541.7 224.3 566.3 236.7 591 239.3C615.7 242 640.3 235 664.8 234.2C689.3 233.3 713.7 238.7 738.2 236.8C762.7 235 787.3 226 812 218.8C836.7 211.7 861.3 206.3 886 213.5C910.7 220.7 935.3 240.3 947.7 250.2L960 260L960 220L947.7 211C935.3 202 910.7 184 886 180.5C861.3 177 836.7 188 812 197C787.3 206 762.7 213 738.2 213C713.7 213 689.3 206 664.8 206C640.3 206 615.7 213 591 210.3C566.3 207.7 541.7 195.3 517 197.2C492.3 199 467.7 215 443 213.2C418.3 211.3 393.7 191.7 369 182.7C344.3 173.7 319.7 175.3 295.2 171.7C270.7 168 246.3 159 221.8 163.5C197.3 168 172.7 186 148 195C123.3 204 98.7 204 74 200.5C49.3 197 24.7 190 12.3 186.5L0 183Z" fill="#000040"></path><path d="M0 239L12.3 242.5C24.7 246 49.3 253 74 259.2C98.7 265.3 123.3 270.7 148 264.3C172.7 258 197.3 240 221.8 232C246.3 224 270.7 226 295.2 228.8C319.7 231.7 344.3 235.3 369 246.2C393.7 257 418.3 275 443 277.7C467.7 280.3 492.3 267.7 517 265.8C541.7 264 566.3 273 591 275.7C615.7 278.3 640.3 274.7 664.8 272C689.3 269.3 713.7 267.7 738.2 263.2C762.7 258.7 787.3 251.3 812 245C836.7 238.7 861.3 233.3 886 239.7C910.7 246 935.3 264 947.7 273L960 282L960 258L947.7 248.2C935.3 238.3 910.7 218.7 886 211.5C861.3 204.3 836.7 209.7 812 216.8C787.3 224 762.7 233 738.2 234.8C713.7 236.7 689.3 231.3 664.8 232.2C640.3 233 615.7 240 591 237.3C566.3 234.7 541.7 222.3 517 226C492.3 229.7 467.7 249.3 443 248.3C418.3 247.3 393.7 225.7 369 213C344.3 200.3 319.7 196.7 295.2 191.3C270.7 186 246.3 179 221.8 185.3C197.3 191.7 172.7 211.3 148 221.2C123.3 231 98.7 231 74 226.5C49.3 222 24.7 213 12.3 208.5L0 204Z" fill="#020446"></path><path d="M0 336L12.3 338.7C24.7 341.3 49.3 346.7 74 362C98.7 377.3 123.3 402.7 148 398.2C172.7 393.7 197.3 359.3 221.8 351.2C246.3 343 270.7 361 295.2 367.3C319.7 373.7 344.3 368.3 369 372C393.7 375.7 418.3 388.3 443 389.2C467.7 390 492.3 379 517 373.5C541.7 368 566.3 368 591 368C615.7 368 640.3 368 664.8 373.5C689.3 379 713.7 390 738.2 386.5C762.7 383 787.3 365 812 365C836.7 365 861.3 383 886 387.5C910.7 392 935.3 383 947.7 378.5L960 374L960 280L947.7 271C935.3 262 910.7 244 886 237.7C861.3 231.3 836.7 236.7 812 243C787.3 249.3 762.7 256.7 738.2 261.2C713.7 265.7 689.3 267.3 664.8 270C640.3 272.7 615.7 276.3 591 273.7C566.3 271 541.7 262 517 263.8C492.3 265.7 467.7 278.3 443 275.7C418.3 273 393.7 255 369 244.2C344.3 233.3 319.7 229.7 295.2 226.8C270.7 224 246.3 222 221.8 230C197.3 238 172.7 256 148 262.3C123.3 268.7 98.7 263.3 74 257.2C49.3 251 24.7 244 12.3 240.5L0 237Z" fill="#210b63"></path><path d="M0 395L12.3 397.7C24.7 400.3 49.3 405.7 74 418.3C98.7 431 123.3 451 148 448.3C172.7 445.7 197.3 420.3 221.8 416.7C246.3 413 270.7 431 295.2 438.2C319.7 445.3 344.3 441.7 369 439C393.7 436.3 418.3 434.7 443 432C467.7 429.3 492.3 425.7 517 425.7C541.7 425.7 566.3 429.3 591 432C615.7 434.7 640.3 436.3 664.8 443.5C689.3 450.7 713.7 463.3 738.2 458.8C762.7 454.3 787.3 432.7 812 430C836.7 427.3 861.3 443.7 886 447.3C910.7 451 935.3 442 947.7 437.5L960 433L960 372L947.7 376.5C935.3 381 910.7 390 886 385.5C861.3 381 836.7 363 812 363C787.3 363 762.7 381 738.2 384.5C713.7 388 689.3 377 664.8 371.5C640.3 366 615.7 366 591 366C566.3 366 541.7 366 517 371.5C492.3 377 467.7 388 443 387.2C418.3 386.3 393.7 373.7 369 370C344.3 366.3 319.7 371.7 295.2 365.3C270.7 359 246.3 341 221.8 349.2C197.3 357.3 172.7 391.7 148 396.2C123.3 400.7 98.7 375.3 74 360C49.3 344.7 24.7 339.3 12.3 336.7L0 334Z" fill="#420b7f"></path><path d="M0 541L12.3 541C24.7 541 49.3 541 74 541C98.7 541 123.3 541 148 541C172.7 541 197.3 541 221.8 541C246.3 541 270.7 541 295.2 541C319.7 541 344.3 541 369 541C393.7 541 418.3 541 443 541C467.7 541 492.3 541 517 541C541.7 541 566.3 541 591 541C615.7 541 640.3 541 664.8 541C689.3 541 713.7 541 738.2 541C762.7 541 787.3 541 812 541C836.7 541 861.3 541 886 541C910.7 541 935.3 541 947.7 541L960 541L960 431L947.7 435.5C935.3 440 910.7 449 886 445.3C861.3 441.7 836.7 425.3 812 428C787.3 430.7 762.7 452.3 738.2 456.8C713.7 461.3 689.3 448.7 664.8 441.5C640.3 434.3 615.7 432.7 591 430C566.3 427.3 541.7 423.7 517 423.7C492.3 423.7 467.7 427.3 443 430C418.3 432.7 393.7 434.3 369 437C344.3 439.7 319.7 443.3 295.2 436.2C270.7 429 246.3 411 221.8 414.7C197.3 418.3 172.7 443.7 148 446.3C123.3 449 98.7 429 74 416.3C49.3 403.7 24.7 398.3 12.3 395.7L0 393Z" fill="#67009a"></path></svg>